<?xml version="1.0" encoding="UTF-8" standalone="no"?>
<!DOCTYPE svg PUBLIC "-//W3C//DTD SVG 1.1//EN"
 "http://www.w3.org/Graphics/SVG/1.1/DTD/svg11.dtd">
<!-- Generated by graphviz version 2.38.0 (20140413.2041)
 -->
<!-- Title: g Pages: 1 -->
<svg width="504pt" height="64pt"
 viewBox="0.00 0.00 504.00 64.02" xmlns="http://www.w3.org/2000/svg" xmlns:xlink="http://www.w3.org/1999/xlink">
<g id="graph0" class="graph" transform="scale(0.157289 0.157289) rotate(0) translate(4 403)">
<title>g</title>
<polygon fill="white" stroke="none" points="-4,4 -4,-403 3200.29,-403 3200.29,4 -4,4"/>
<!-- N0 -->
<g id="node1" class="node"><title>N0</title>
<path fill="#ffffff" stroke="#2e3436" stroke-width="1.5" d="M343.788,-359C343.788,-359 390.788,-359 390.788,-359 396.788,-359 402.788,-365 402.788,-371 402.788,-371 402.788,-383 402.788,-383 402.788,-389 396.788,-395 390.788,-395 390.788,-395 343.788,-395 343.788,-395 337.788,-395 331.788,-389 331.788,-383 331.788,-383 331.788,-371 331.788,-371 331.788,-365 337.788,-359 343.788,-359"/>
<text text-anchor="middle" x="367.288" y="-384.1" font-family="sans-serif" font-size="8.00" fill="#1c2021">Person</text>
<polyline fill="none" stroke="#2e3436" stroke-width="1.5" points="331.788,-377 402.788,-377 "/>
<text text-anchor="start" x="339.788" y="-366.1" font-family="sans-serif" font-size="8.00" fill="#1c2021">name = &#39;me&#39;</text>
</g>
<!-- N1 -->
<g id="node2" class="node"><title>N1</title>
<path fill="#ffffff" stroke="#2e3436" stroke-width="1.5" d="M101.288,-264.5C101.288,-264.5 165.288,-264.5 165.288,-264.5 171.288,-264.5 177.288,-270.5 177.288,-276.5 177.288,-276.5 177.288,-288.5 177.288,-288.5 177.288,-294.5 171.288,-300.5 165.288,-300.5 165.288,-300.5 101.288,-300.5 101.288,-300.5 95.288,-300.5 89.288,-294.5 89.288,-288.5 89.288,-288.5 89.288,-276.5 89.288,-276.5 89.288,-270.5 95.288,-264.5 101.288,-264.5"/>
<text text-anchor="middle" x="133.288" y="-289.6" font-family="sans-serif" font-size="8.00" fill="#1c2021">Person</text>
<polyline fill="none" stroke="#2e3436" stroke-width="1.5" points="89.288,-282.5 177.288,-282.5 "/>
<text text-anchor="start" x="97.288" y="-271.6" font-family="sans-serif" font-size="8.00" fill="#1c2021">name = &#39;Andres&#39;</text>
</g>
<!-- N0&#45;&gt;N1 -->
<g id="edge1" class="edge"><title>N0&#45;&gt;N1</title>
<path fill="none" stroke="#2e3436" stroke-width="2" d="M331.748,-361.951C292.185,-346.312 227.951,-320.92 183.319,-303.277"/>
<polygon fill="#2e3436" stroke="#2e3436" stroke-width="2" points="176.331,-300.515 184.546,-300.133 180.002,-301.428 183.489,-302.807 183.306,-303.272 183.122,-303.737 179.634,-302.358 182.065,-306.411 176.331,-300.515 176.331,-300.515"/>
<text text-anchor="middle" x="295.788" y="-326.1" font-family="sans-serif" font-size="8.00" fill="#2e3436">FRIENDS_WITH</text>
</g>
<!-- N14 -->
<g id="node3" class="node"><title>N14</title>
<path fill="#ffffff" stroke="#2e3436" stroke-width="1.5" d="M344.788,-82.5C344.788,-82.5 409.788,-82.5 409.788,-82.5 415.788,-82.5 421.788,-88.5 421.788,-94.5 421.788,-94.5 421.788,-106.5 421.788,-106.5 421.788,-112.5 415.788,-118.5 409.788,-118.5 409.788,-118.5 344.788,-118.5 344.788,-118.5 338.788,-118.5 332.788,-112.5 332.788,-106.5 332.788,-106.5 332.788,-94.5 332.788,-94.5 332.788,-88.5 338.788,-82.5 344.788,-82.5"/>
<text text-anchor="middle" x="377.288" y="-107.6" font-family="sans-serif" font-size="8.00" fill="#1c2021">Location</text>
<polyline fill="none" stroke="#2e3436" stroke-width="1.5" points="332.788,-100.5 421.788,-100.5 "/>
<text text-anchor="start" x="340.788" y="-89.6" font-family="sans-serif" font-size="8.00" fill="#1c2021">name = &#39;London&#39;</text>
</g>
<!-- N0&#45;&gt;N14 -->
<g id="edge2" class="edge"><title>N0&#45;&gt;N14</title>
<path fill="none" stroke="#4e9a06" stroke-width="2" d="M377.302,-358.756C393.873,-329.328 426.713,-267.05 442.288,-210 448.764,-186.279 446.953,-179.553 448.288,-155 448.722,-147.012 452.494,-143.805 448.288,-137 443.533,-129.307 436.551,-123.225 428.795,-118.434"/>
<polygon fill="#4e9a06" stroke="#4e9a06" stroke-width="2" points="422.13,-114.706 430.323,-115.422 425.647,-116.1 428.92,-117.931 428.675,-118.367 428.431,-118.804 425.159,-116.973 427.028,-121.313 422.13,-114.706 422.13,-114.706"/>
<text text-anchor="middle" x="469.288" y="-239.6" font-family="sans-serif" font-size="8.00" fill="#4e9a06">WORKS_IN</text>
<text text-anchor="start" x="437.288" y="-230.6" font-family="sans-serif" font-size="8.00" fill="#4e9a06">duration = 190</text>
</g>
<!-- N1&#45;&gt;N14 -->
<g id="edge4" class="edge"><title>N1&#45;&gt;N14</title>
<path fill="none" stroke="#4e9a06" stroke-width="2" d="M89.2198,-265.516C42.0278,-245.967 -22.2201,-210.786 8.28803,-173 47.3623,-124.605 232.874,-108.637 325.053,-103.638"/>
<polygon fill="#4e9a06" stroke="#4e9a06" stroke-width="2" points="332.6,-103.242 325.288,-107.006 328.882,-103.938 325.137,-104.135 325.111,-103.635 325.085,-103.136 328.829,-102.94 324.934,-100.265 332.6,-103.242 332.6,-103.242"/>
<text text-anchor="middle" x="40.288" y="-194.1" font-family="sans-serif" font-size="8.00" fill="#4e9a06">WORKS_IN</text>
<text text-anchor="start" x="8.28803" y="-185.1" font-family="sans-serif" font-size="8.00" fill="#4e9a06">duration = 150</text>
</g>
<!-- N2 -->
<g id="node4" class="node"><title>N2</title>
<path fill="#ffffff" stroke="#2e3436" stroke-width="1.5" d="M98.788,-173.5C98.788,-173.5 167.788,-173.5 167.788,-173.5 173.788,-173.5 179.788,-179.5 179.788,-185.5 179.788,-185.5 179.788,-197.5 179.788,-197.5 179.788,-203.5 173.788,-209.5 167.788,-209.5 167.788,-209.5 98.788,-209.5 98.788,-209.5 92.788,-209.5 86.788,-203.5 86.788,-197.5 86.788,-197.5 86.788,-185.5 86.788,-185.5 86.788,-179.5 92.788,-173.5 98.788,-173.5"/>
<text text-anchor="middle" x="133.288" y="-198.6" font-family="sans-serif" font-size="8.00" fill="#1c2021">Person</text>
<polyline fill="none" stroke="#2e3436" stroke-width="1.5" points="86.788,-191.5 179.788,-191.5 "/>
<text text-anchor="start" x="94.788" y="-180.6" font-family="sans-serif" font-size="8.00" fill="#1c2021">name = &#39;Andreas&#39;</text>
</g>
<!-- N1&#45;&gt;N2 -->
<g id="edge3" class="edge"><title>N1&#45;&gt;N2</title>
<path fill="none" stroke="#2e3436" stroke-width="2" d="M133.288,-264.34C133.288,-251.043 133.288,-232.427 133.288,-217.478"/>
<polygon fill="#2e3436" stroke="#2e3436" stroke-width="2" points="133.288,-209.607 136.663,-217.107 133.788,-213.357 133.788,-217.107 133.288,-217.107 132.788,-217.107 132.788,-213.357 129.913,-217.107 133.288,-209.607 133.288,-209.607"/>
<text text-anchor="middle" x="163.788" y="-235.1" font-family="sans-serif" font-size="8.00" fill="#2e3436">FRIENDS_WITH</text>
</g>
<!-- N24 -->
<g id="node21" class="node"><title>N24</title>
<path fill="#ffffff" stroke="#2e3436" stroke-width="1.5" d="M343.288,-0.5C343.288,-0.5 411.288,-0.5 411.288,-0.5 417.288,-0.5 423.288,-6.5 423.288,-12.5 423.288,-12.5 423.288,-24.5 423.288,-24.5 423.288,-30.5 417.288,-36.5 411.288,-36.5 411.288,-36.5 343.288,-36.5 343.288,-36.5 337.288,-36.5 331.288,-30.5 331.288,-24.5 331.288,-24.5 331.288,-12.5 331.288,-12.5 331.288,-6.5 337.288,-0.5 343.288,-0.5"/>
<text text-anchor="middle" x="377.288" y="-25.6" font-family="sans-serif" font-size="8.00" fill="#1c2021">Country</text>
<polyline fill="none" stroke="#2e3436" stroke-width="1.5" points="331.288,-18.5 423.288,-18.5 "/>
<text text-anchor="start" x="339.288" y="-7.6" font-family="sans-serif" font-size="8.00" fill="#1c2021">name = &#39;England&#39;</text>
</g>
<!-- N14&#45;&gt;N24 -->
<g id="edge18" class="edge"><title>N14&#45;&gt;N24</title>
<path fill="none" stroke="#a40000" stroke-width="2" d="M377.288,-82.1412C377.288,-71.0583 377.288,-56.5177 377.288,-44.2358"/>
<polygon fill="#a40000" stroke="#a40000" stroke-width="2" points="377.288,-36.5501 380.663,-44.0501 377.788,-40.3001 377.788,-44.0501 377.288,-44.0501 376.788,-44.0501 376.788,-40.3001 373.913,-44.0501 377.288,-36.5501 377.288,-36.5501"/>
<text text-anchor="middle" x="381.788" y="-57.6" font-family="sans-serif" font-size="8.00" fill="#a40000">IN</text>
</g>
<!-- N2&#45;&gt;N14 -->
<g id="edge5" class="edge"><title>N2&#45;&gt;N14</title>
<path fill="none" stroke="#4e9a06" stroke-width="2" d="M154.682,-173.42C170.553,-161.554 193.184,-146.265 215.288,-137 250.442,-122.265 292.561,-113.276 325.04,-108.031"/>
<polygon fill="#4e9a06" stroke="#4e9a06" stroke-width="2" points="332.657,-106.841 325.768,-111.333 329.029,-107.914 325.324,-108.493 325.247,-107.999 325.169,-107.505 328.874,-106.926 324.725,-104.664 332.657,-106.841 332.657,-106.841"/>
<text text-anchor="middle" x="247.288" y="-148.6" font-family="sans-serif" font-size="8.00" fill="#4e9a06">WORKS_IN</text>
<text text-anchor="start" x="215.288" y="-139.6" font-family="sans-serif" font-size="8.00" fill="#4e9a06">duration = 187</text>
</g>
<!-- N3 -->
<g id="node5" class="node"><title>N3</title>
<path fill="#ffffff" stroke="#2e3436" stroke-width="1.5" d="M220.788,-173.5C220.788,-173.5 285.788,-173.5 285.788,-173.5 291.788,-173.5 297.788,-179.5 297.788,-185.5 297.788,-185.5 297.788,-197.5 297.788,-197.5 297.788,-203.5 291.788,-209.5 285.788,-209.5 285.788,-209.5 220.788,-209.5 220.788,-209.5 214.788,-209.5 208.788,-203.5 208.788,-197.5 208.788,-197.5 208.788,-185.5 208.788,-185.5 208.788,-179.5 214.788,-173.5 220.788,-173.5"/>
<text text-anchor="middle" x="253.288" y="-198.6" font-family="sans-serif" font-size="8.00" fill="#1c2021">Person</text>
<polyline fill="none" stroke="#2e3436" stroke-width="1.5" points="208.788,-191.5 297.788,-191.5 "/>
<text text-anchor="start" x="216.788" y="-180.6" font-family="sans-serif" font-size="8.00" fill="#1c2021">name = &#39;Mattias&#39;</text>
</g>
<!-- N3&#45;&gt;N14 -->
<g id="edge6" class="edge"><title>N3&#45;&gt;N14</title>
<path fill="none" stroke="#4e9a06" stroke-width="2" d="M267.815,-173.13C277.83,-161.878 291.888,-147.431 306.288,-137 313.7,-131.632 322.044,-126.659 330.337,-122.239"/>
<polygon fill="#4e9a06" stroke="#4e9a06" stroke-width="2" points="337.271,-118.66 332.155,-125.099 334.168,-120.824 330.836,-122.545 330.607,-122.1 330.377,-121.656 333.709,-119.936 329.058,-119.102 337.271,-118.66 337.271,-118.66"/>
<text text-anchor="middle" x="338.288" y="-148.6" font-family="sans-serif" font-size="8.00" fill="#4e9a06">WORKS_IN</text>
<text text-anchor="start" x="306.288" y="-139.6" font-family="sans-serif" font-size="8.00" fill="#4e9a06">duration = 230</text>
</g>
<!-- N4 -->
<g id="node6" class="node"><title>N4</title>
<path fill="#ffffff" stroke="#2e3436" stroke-width="1.5" d="M548.288,-359C548.288,-359 604.288,-359 604.288,-359 610.288,-359 616.288,-365 616.288,-371 616.288,-371 616.288,-383 616.288,-383 616.288,-389 610.288,-395 604.288,-395 604.288,-395 548.288,-395 548.288,-395 542.288,-395 536.288,-389 536.288,-383 536.288,-383 536.288,-371 536.288,-371 536.288,-365 542.288,-359 548.288,-359"/>
<text text-anchor="middle" x="576.288" y="-384.1" font-family="sans-serif" font-size="8.00" fill="#1c2021">Person</text>
<polyline fill="none" stroke="#2e3436" stroke-width="1.5" points="536.288,-377 616.288,-377 "/>
<text text-anchor="start" x="544.288" y="-366.1" font-family="sans-serif" font-size="8.00" fill="#1c2021">name = &#39;Lovis&#39;</text>
</g>
<!-- N16 -->
<g id="node7" class="node"><title>N16</title>
<path fill="#ffffff" stroke="#2e3436" stroke-width="1.5" d="M529.788,-264.5C529.788,-264.5 622.788,-264.5 622.788,-264.5 628.788,-264.5 634.788,-270.5 634.788,-276.5 634.788,-276.5 634.788,-288.5 634.788,-288.5 634.788,-294.5 628.788,-300.5 622.788,-300.5 622.788,-300.5 529.788,-300.5 529.788,-300.5 523.788,-300.5 517.788,-294.5 517.788,-288.5 517.788,-288.5 517.788,-276.5 517.788,-276.5 517.788,-270.5 523.788,-264.5 529.788,-264.5"/>
<text text-anchor="middle" x="576.288" y="-289.6" font-family="sans-serif" font-size="8.00" fill="#1c2021">Location</text>
<polyline fill="none" stroke="#2e3436" stroke-width="1.5" points="517.788,-282.5 634.788,-282.5 "/>
<text text-anchor="start" x="525.788" y="-271.6" font-family="sans-serif" font-size="8.00" fill="#1c2021">name = &#39;San Francisco&#39;</text>
</g>
<!-- N4&#45;&gt;N16 -->
<g id="edge7" class="edge"><title>N4&#45;&gt;N16</title>
<path fill="none" stroke="#4e9a06" stroke-width="2" d="M576.288,-358.601C576.288,-344.43 576.288,-324.24 576.288,-308.363"/>
<polygon fill="#4e9a06" stroke="#4e9a06" stroke-width="2" points="576.288,-300.508 579.663,-308.008 576.788,-304.258 576.788,-308.008 576.288,-308.008 575.788,-308.008 575.788,-304.258 572.913,-308.008 576.288,-300.508 576.288,-300.508"/>
<text text-anchor="middle" x="608.288" y="-330.6" font-family="sans-serif" font-size="8.00" fill="#4e9a06">WORKS_IN</text>
<text text-anchor="start" x="576.288" y="-321.6" font-family="sans-serif" font-size="8.00" fill="#4e9a06">duration = 230</text>
</g>
<!-- N5 -->
<g id="node8" class="node"><title>N5</title>
<path fill="#ffffff" stroke="#2e3436" stroke-width="1.5" d="M657.788,-359C657.788,-359 720.788,-359 720.788,-359 726.788,-359 732.788,-365 732.788,-371 732.788,-371 732.788,-383 732.788,-383 732.788,-389 726.788,-395 720.788,-395 720.788,-395 657.788,-395 657.788,-395 651.788,-395 645.788,-389 645.788,-383 645.788,-383 645.788,-371 645.788,-371 645.788,-365 651.788,-359 657.788,-359"/>
<text text-anchor="middle" x="689.288" y="-384.1" font-family="sans-serif" font-size="8.00" fill="#1c2021">Person</text>
<polyline fill="none" stroke="#2e3436" stroke-width="1.5" points="645.788,-377 732.788,-377 "/>
<text text-anchor="start" x="653.788" y="-366.1" font-family="sans-serif" font-size="8.00" fill="#1c2021">name = &#39;Pontus&#39;</text>
</g>
<!-- N15 -->
<g id="node9" class="node"><title>N15</title>
<path fill="#ffffff" stroke="#2e3436" stroke-width="1.5" d="M824.288,-264.5C824.288,-264.5 886.288,-264.5 886.288,-264.5 892.288,-264.5 898.288,-270.5 898.288,-276.5 898.288,-276.5 898.288,-288.5 898.288,-288.5 898.288,-294.5 892.288,-300.5 886.288,-300.5 886.288,-300.5 824.288,-300.5 824.288,-300.5 818.288,-300.5 812.288,-294.5 812.288,-288.5 812.288,-288.5 812.288,-276.5 812.288,-276.5 812.288,-270.5 818.288,-264.5 824.288,-264.5"/>
<text text-anchor="middle" x="855.288" y="-289.6" font-family="sans-serif" font-size="8.00" fill="#1c2021">Location</text>
<polyline fill="none" stroke="#2e3436" stroke-width="1.5" points="812.288,-282.5 898.288,-282.5 "/>
<text text-anchor="start" x="820.288" y="-271.6" font-family="sans-serif" font-size="8.00" fill="#1c2021">name = &#39;Malmo&#39;</text>
</g>
<!-- N5&#45;&gt;N15 -->
<g id="edge8" class="edge"><title>N5&#45;&gt;N15</title>
<path fill="none" stroke="#4e9a06" stroke-width="2" d="M698.179,-358.891C705.653,-346.123 717.481,-329.189 732.288,-319 753.683,-304.277 781.174,-295.598 804.738,-290.513"/>
<polygon fill="#4e9a06" stroke="#4e9a06" stroke-width="2" points="812.238,-288.986 805.562,-293.79 808.663,-290.224 804.988,-290.973 804.889,-290.483 804.789,-289.993 808.463,-289.244 804.215,-287.176 812.238,-288.986 812.238,-288.986"/>
<text text-anchor="middle" x="764.288" y="-330.6" font-family="sans-serif" font-size="8.00" fill="#4e9a06">WORKS_IN</text>
<text text-anchor="start" x="732.288" y="-321.6" font-family="sans-serif" font-size="8.00" fill="#4e9a06">duration = 230</text>
</g>
<!-- N6 -->
<g id="node10" class="node"><title>N6</title>
<path fill="#ffffff" stroke="#2e3436" stroke-width="1.5" d="M1107.29,-359C1107.29,-359 1157.29,-359 1157.29,-359 1163.29,-359 1169.29,-365 1169.29,-371 1169.29,-371 1169.29,-383 1169.29,-383 1169.29,-389 1163.29,-395 1157.29,-395 1157.29,-395 1107.29,-395 1107.29,-395 1101.29,-395 1095.29,-389 1095.29,-383 1095.29,-383 1095.29,-371 1095.29,-371 1095.29,-365 1101.29,-359 1107.29,-359"/>
<text text-anchor="middle" x="1132.29" y="-384.1" font-family="sans-serif" font-size="8.00" fill="#1c2021">Person</text>
<polyline fill="none" stroke="#2e3436" stroke-width="1.5" points="1095.29,-377 1169.29,-377 "/>
<text text-anchor="start" x="1103.29" y="-366.1" font-family="sans-serif" font-size="8.00" fill="#1c2021">name = &#39;Max&#39;</text>
</g>
<!-- N18 -->
<g id="node11" class="node"><title>N18</title>
<path fill="#ffffff" stroke="#2e3436" stroke-width="1.5" d="M1095.79,-264.5C1095.79,-264.5 1168.79,-264.5 1168.79,-264.5 1174.79,-264.5 1180.79,-270.5 1180.79,-276.5 1180.79,-276.5 1180.79,-288.5 1180.79,-288.5 1180.79,-294.5 1174.79,-300.5 1168.79,-300.5 1168.79,-300.5 1095.79,-300.5 1095.79,-300.5 1089.79,-300.5 1083.79,-294.5 1083.79,-288.5 1083.79,-288.5 1083.79,-276.5 1083.79,-276.5 1083.79,-270.5 1089.79,-264.5 1095.79,-264.5"/>
<text text-anchor="middle" x="1132.29" y="-289.6" font-family="sans-serif" font-size="8.00" fill="#1c2021">Location</text>
<polyline fill="none" stroke="#2e3436" stroke-width="1.5" points="1083.79,-282.5 1180.79,-282.5 "/>
<text text-anchor="start" x="1091.79" y="-271.6" font-family="sans-serif" font-size="8.00" fill="#1c2021">name = &#39;New York&#39;</text>
</g>
<!-- N6&#45;&gt;N18 -->
<g id="edge9" class="edge"><title>N6&#45;&gt;N18</title>
<path fill="none" stroke="#4e9a06" stroke-width="2" d="M1132.29,-358.601C1132.29,-344.43 1132.29,-324.24 1132.29,-308.363"/>
<polygon fill="#4e9a06" stroke="#4e9a06" stroke-width="2" points="1132.29,-300.508 1135.66,-308.008 1132.79,-304.258 1132.79,-308.008 1132.29,-308.008 1131.79,-308.008 1131.79,-304.258 1128.91,-308.008 1132.29,-300.508 1132.29,-300.508"/>
<text text-anchor="middle" x="1164.29" y="-330.6" font-family="sans-serif" font-size="8.00" fill="#4e9a06">WORKS_IN</text>
<text text-anchor="start" x="1132.29" y="-321.6" font-family="sans-serif" font-size="8.00" fill="#4e9a06">duration = 230</text>
</g>
<!-- N7 -->
<g id="node12" class="node"><title>N7</title>
<path fill="#ffffff" stroke="#2e3436" stroke-width="1.5" d="M338.288,-173.5C338.288,-173.5 416.288,-173.5 416.288,-173.5 422.288,-173.5 428.288,-179.5 428.288,-185.5 428.288,-185.5 428.288,-197.5 428.288,-197.5 428.288,-203.5 422.288,-209.5 416.288,-209.5 416.288,-209.5 338.288,-209.5 338.288,-209.5 332.288,-209.5 326.288,-203.5 326.288,-197.5 326.288,-197.5 326.288,-185.5 326.288,-185.5 326.288,-179.5 332.288,-173.5 338.288,-173.5"/>
<text text-anchor="middle" x="377.288" y="-198.6" font-family="sans-serif" font-size="8.00" fill="#1c2021">Person</text>
<polyline fill="none" stroke="#2e3436" stroke-width="1.5" points="326.288,-191.5 428.288,-191.5 "/>
<text text-anchor="start" x="334.288" y="-180.6" font-family="sans-serif" font-size="8.00" fill="#1c2021">name = &#39;Konstantin&#39;</text>
</g>
<!-- N7&#45;&gt;N14 -->
<g id="edge10" class="edge"><title>N7&#45;&gt;N14</title>
<path fill="none" stroke="#4e9a06" stroke-width="2" d="M377.288,-173.34C377.288,-160.043 377.288,-141.427 377.288,-126.478"/>
<polygon fill="#4e9a06" stroke="#4e9a06" stroke-width="2" points="377.288,-118.607 380.663,-126.107 377.788,-122.357 377.788,-126.107 377.288,-126.107 376.788,-126.107 376.788,-122.357 373.913,-126.107 377.288,-118.607 377.288,-118.607"/>
<text text-anchor="middle" x="409.288" y="-148.6" font-family="sans-serif" font-size="8.00" fill="#4e9a06">WORKS_IN</text>
<text text-anchor="start" x="377.288" y="-139.6" font-family="sans-serif" font-size="8.00" fill="#4e9a06">duration = 230</text>
</g>
<!-- N8 -->
<g id="node13" class="node"><title>N8</title>
<path fill="#ffffff" stroke="#2e3436" stroke-width="1.5" d="M670.288,-173.5C670.288,-173.5 732.288,-173.5 732.288,-173.5 738.288,-173.5 744.288,-179.5 744.288,-185.5 744.288,-185.5 744.288,-197.5 744.288,-197.5 744.288,-203.5 738.288,-209.5 732.288,-209.5 732.288,-209.5 670.288,-209.5 670.288,-209.5 664.288,-209.5 658.288,-203.5 658.288,-197.5 658.288,-197.5 658.288,-185.5 658.288,-185.5 658.288,-179.5 664.288,-173.5 670.288,-173.5"/>
<text text-anchor="middle" x="701.288" y="-198.6" font-family="sans-serif" font-size="8.00" fill="#1c2021">Person</text>
<polyline fill="none" stroke="#2e3436" stroke-width="1.5" points="658.288,-191.5 744.288,-191.5 "/>
<text text-anchor="start" x="666.288" y="-180.6" font-family="sans-serif" font-size="8.00" fill="#1c2021">name = &#39;Stefan&#39;</text>
</g>
<!-- N8&#45;&gt;N14 -->
<g id="edge12" class="edge"><title>N8&#45;&gt;N14</title>
<path fill="none" stroke="#4e9a06" stroke-width="2" d="M671.909,-173.316C650.289,-161.399 619.817,-146.093 591.288,-137 537.636,-119.9 473.653,-110.665 429.711,-105.941"/>
<polygon fill="#4e9a06" stroke="#4e9a06" stroke-width="2" points="422.019,-105.138 429.829,-102.56 425.8,-105.03 429.53,-105.419 429.478,-105.917 429.426,-106.414 425.696,-106.025 429.128,-109.273 422.019,-105.138 422.019,-105.138"/>
<text text-anchor="middle" x="667.288" y="-148.6" font-family="sans-serif" font-size="8.00" fill="#4e9a06">WORKS_IN</text>
<text text-anchor="start" x="635.288" y="-139.6" font-family="sans-serif" font-size="8.00" fill="#4e9a06">duration = 230</text>
</g>
<!-- N17 -->
<g id="node14" class="node"><title>N17</title>
<path fill="#ffffff" stroke="#2e3436" stroke-width="1.5" d="M704.788,-82.5C704.788,-82.5 763.788,-82.5 763.788,-82.5 769.788,-82.5 775.788,-88.5 775.788,-94.5 775.788,-94.5 775.788,-106.5 775.788,-106.5 775.788,-112.5 769.788,-118.5 763.788,-118.5 763.788,-118.5 704.788,-118.5 704.788,-118.5 698.788,-118.5 692.788,-112.5 692.788,-106.5 692.788,-106.5 692.788,-94.5 692.788,-94.5 692.788,-88.5 698.788,-82.5 704.788,-82.5"/>
<text text-anchor="middle" x="734.288" y="-107.6" font-family="sans-serif" font-size="8.00" fill="#1c2021">Location</text>
<polyline fill="none" stroke="#2e3436" stroke-width="1.5" points="692.788,-100.5 775.788,-100.5 "/>
<text text-anchor="start" x="700.788" y="-89.6" font-family="sans-serif" font-size="8.00" fill="#1c2021">name = &#39;Berlin&#39;</text>
</g>
<!-- N8&#45;&gt;N17 -->
<g id="edge11" class="edge"><title>N8&#45;&gt;N17</title>
<path fill="none" stroke="#4e9a06" stroke-width="2" d="M707.651,-173.34C712.673,-159.796 719.74,-140.736 725.333,-125.652"/>
<polygon fill="#4e9a06" stroke="#4e9a06" stroke-width="2" points="727.945,-118.607 728.502,-126.813 727.11,-122.297 725.806,-125.813 725.337,-125.64 724.869,-125.466 726.172,-121.95 722.173,-124.466 727.945,-118.607 727.945,-118.607"/>
<text text-anchor="middle" x="753.288" y="-148.6" font-family="sans-serif" font-size="8.00" fill="#4e9a06">WORKS_IN</text>
<text text-anchor="start" x="721.288" y="-139.6" font-family="sans-serif" font-size="8.00" fill="#4e9a06">duration = 230</text>
</g>
<!-- N9 -->
<g id="node15" class="node"><title>N9</title>
<path fill="#ffffff" stroke="#2e3436" stroke-width="1.5" d="M774.288,-359C774.288,-359 828.288,-359 828.288,-359 834.288,-359 840.288,-365 840.288,-371 840.288,-371 840.288,-383 840.288,-383 840.288,-389 834.288,-395 828.288,-395 828.288,-395 774.288,-395 774.288,-395 768.288,-395 762.288,-389 762.288,-383 762.288,-383 762.288,-371 762.288,-371 762.288,-365 768.288,-359 774.288,-359"/>
<text text-anchor="middle" x="801.288" y="-384.1" font-family="sans-serif" font-size="8.00" fill="#1c2021">Person</text>
<polyline fill="none" stroke="#2e3436" stroke-width="1.5" points="762.288,-377 840.288,-377 "/>
<text text-anchor="start" x="770.288" y="-366.1" font-family="sans-serif" font-size="8.00" fill="#1c2021">name = &#39;Mats&#39;</text>
</g>
<!-- N9&#45;&gt;N15 -->
<g id="edge13" class="edge"><title>N9&#45;&gt;N15</title>
<path fill="none" stroke="#4e9a06" stroke-width="2" d="M800.397,-358.946C800.525,-347.009 802.258,-331.095 809.288,-319 812.076,-314.203 815.789,-309.829 819.902,-305.917"/>
<polygon fill="#4e9a06" stroke="#4e9a06" stroke-width="2" points="825.707,-300.873 822.259,-308.339 823.204,-303.71 820.374,-306.169 820.046,-305.792 819.718,-305.414 822.548,-302.955 817.832,-303.244 825.707,-300.873 825.707,-300.873"/>
<text text-anchor="middle" x="841.288" y="-330.6" font-family="sans-serif" font-size="8.00" fill="#4e9a06">WORKS_IN</text>
<text text-anchor="start" x="809.288" y="-321.6" font-family="sans-serif" font-size="8.00" fill="#4e9a06">duration = 230</text>
</g>
<!-- N10 -->
<g id="node16" class="node"><title>N10</title>
<path fill="#ffffff" stroke="#2e3436" stroke-width="1.5" d="M528.288,-173.5C528.288,-173.5 584.288,-173.5 584.288,-173.5 590.288,-173.5 596.288,-179.5 596.288,-185.5 596.288,-185.5 596.288,-197.5 596.288,-197.5 596.288,-203.5 590.288,-209.5 584.288,-209.5 584.288,-209.5 528.288,-209.5 528.288,-209.5 522.288,-209.5 516.288,-203.5 516.288,-197.5 516.288,-197.5 516.288,-185.5 516.288,-185.5 516.288,-179.5 522.288,-173.5 528.288,-173.5"/>
<text text-anchor="middle" x="556.288" y="-198.6" font-family="sans-serif" font-size="8.00" fill="#1c2021">Person</text>
<polyline fill="none" stroke="#2e3436" stroke-width="1.5" points="516.288,-191.5 596.288,-191.5 "/>
<text text-anchor="start" x="524.288" y="-180.6" font-family="sans-serif" font-size="8.00" fill="#1c2021">name = &#39;Petra&#39;</text>
</g>
<!-- N10&#45;&gt;N14 -->
<g id="edge14" class="edge"><title>N10&#45;&gt;N14</title>
<path fill="none" stroke="#4e9a06" stroke-width="2" d="M540.375,-173.414C528.632,-161.7 511.724,-146.6 494.288,-137 474.161,-125.919 450.138,-117.862 429.112,-112.253"/>
<polygon fill="#4e9a06" stroke="#4e9a06" stroke-width="2" points="421.811,-110.37 429.916,-108.975 425.567,-110.823 429.198,-111.759 429.073,-112.243 428.948,-112.727 425.317,-111.791 428.23,-115.511 421.811,-110.37 421.811,-110.37"/>
<text text-anchor="middle" x="552.288" y="-148.6" font-family="sans-serif" font-size="8.00" fill="#4e9a06">WORKS_IN</text>
<text text-anchor="start" x="520.288" y="-139.6" font-family="sans-serif" font-size="8.00" fill="#4e9a06">duration = 230</text>
</g>
<!-- N11 -->
<g id="node17" class="node"><title>N11</title>
<path fill="#ffffff" stroke="#2e3436" stroke-width="1.5" d="M881.288,-359C881.288,-359 937.288,-359 937.288,-359 943.288,-359 949.288,-365 949.288,-371 949.288,-371 949.288,-383 949.288,-383 949.288,-389 943.288,-395 937.288,-395 937.288,-395 881.288,-395 881.288,-395 875.288,-395 869.288,-389 869.288,-383 869.288,-383 869.288,-371 869.288,-371 869.288,-365 875.288,-359 881.288,-359"/>
<text text-anchor="middle" x="909.288" y="-384.1" font-family="sans-serif" font-size="8.00" fill="#1c2021">Person</text>
<polyline fill="none" stroke="#2e3436" stroke-width="1.5" points="869.288,-377 949.288,-377 "/>
<text text-anchor="start" x="877.288" y="-366.1" font-family="sans-serif" font-size="8.00" fill="#1c2021">name = &#39;Craig&#39;</text>
</g>
<!-- N11&#45;&gt;N15 -->
<g id="edge15" class="edge"><title>N11&#45;&gt;N15</title>
<path fill="none" stroke="#4e9a06" stroke-width="2" d="M899.366,-358.765C892.836,-347.446 884.085,-332.323 876.288,-319 874.118,-315.292 871.811,-311.372 869.552,-307.543"/>
<polygon fill="#4e9a06" stroke="#4e9a06" stroke-width="2" points="865.575,-300.815 872.296,-305.554 867.913,-303.789 869.822,-307.017 869.391,-307.271 868.961,-307.526 867.052,-304.297 866.486,-308.989 865.575,-300.815 865.575,-300.815"/>
<text text-anchor="middle" x="919.288" y="-330.6" font-family="sans-serif" font-size="8.00" fill="#4e9a06">WORKS_IN</text>
<text text-anchor="start" x="887.288" y="-321.6" font-family="sans-serif" font-size="8.00" fill="#4e9a06">duration = 230</text>
</g>
<!-- N12 -->
<g id="node18" class="node"><title>N12</title>
<path fill="#ffffff" stroke="#2e3436" stroke-width="1.5" d="M990.788,-359C990.788,-359 1053.79,-359 1053.79,-359 1059.79,-359 1065.79,-365 1065.79,-371 1065.79,-371 1065.79,-383 1065.79,-383 1065.79,-389 1059.79,-395 1053.79,-395 1053.79,-395 990.788,-395 990.788,-395 984.788,-395 978.788,-389 978.788,-383 978.788,-383 978.788,-371 978.788,-371 978.788,-365 984.788,-359 990.788,-359"/>
<text text-anchor="middle" x="1022.29" y="-384.1" font-family="sans-serif" font-size="8.00" fill="#1c2021">Person</text>
<polyline fill="none" stroke="#2e3436" stroke-width="1.5" points="978.788,-377 1065.79,-377 "/>
<text text-anchor="start" x="986.788" y="-366.1" font-family="sans-serif" font-size="8.00" fill="#1c2021">name = &#39;Steven&#39;</text>
</g>
<!-- N12&#45;&gt;N15 -->
<g id="edge16" class="edge"><title>N12&#45;&gt;N15</title>
<path fill="none" stroke="#4e9a06" stroke-width="2" d="M1006.62,-358.771C994.467,-346.277 976.649,-329.752 958.288,-319 942.15,-309.55 923.113,-302.104 905.824,-296.523"/>
<polygon fill="#4e9a06" stroke="#4e9a06" stroke-width="2" points="898.535,-294.246 906.7,-293.261 902.263,-294.887 905.843,-296.006 905.693,-296.483 905.544,-296.96 901.965,-295.842 904.687,-299.704 898.535,-294.246 898.535,-294.246"/>
<text text-anchor="middle" x="1015.29" y="-330.6" font-family="sans-serif" font-size="8.00" fill="#4e9a06">WORKS_IN</text>
<text text-anchor="start" x="983.288" y="-321.6" font-family="sans-serif" font-size="8.00" fill="#4e9a06">duration = 230</text>
</g>
<!-- N13 -->
<g id="node19" class="node"><title>N13</title>
<path fill="#ffffff" stroke="#2e3436" stroke-width="1.5" d="M1225.29,-359C1225.29,-359 1281.29,-359 1281.29,-359 1287.29,-359 1293.29,-365 1293.29,-371 1293.29,-371 1293.29,-383 1293.29,-383 1293.29,-389 1287.29,-395 1281.29,-395 1281.29,-395 1225.29,-395 1225.29,-395 1219.29,-395 1213.29,-389 1213.29,-383 1213.29,-383 1213.29,-371 1213.29,-371 1213.29,-365 1219.29,-359 1225.29,-359"/>
<text text-anchor="middle" x="1253.29" y="-384.1" font-family="sans-serif" font-size="8.00" fill="#1c2021">Person</text>
<polyline fill="none" stroke="#2e3436" stroke-width="1.5" points="1213.29,-377 1293.29,-377 "/>
<text text-anchor="start" x="1221.29" y="-366.1" font-family="sans-serif" font-size="8.00" fill="#1c2021">name = &#39;Chris&#39;</text>
</g>
<!-- N22 -->
<g id="node20" class="node"><title>N22</title>
<path fill="#ffffff" stroke="#2e3436" stroke-width="1.5" d="M1222.29,-264.5C1222.29,-264.5 1284.29,-264.5 1284.29,-264.5 1290.29,-264.5 1296.29,-270.5 1296.29,-276.5 1296.29,-276.5 1296.29,-288.5 1296.29,-288.5 1296.29,-294.5 1290.29,-300.5 1284.29,-300.5 1284.29,-300.5 1222.29,-300.5 1222.29,-300.5 1216.29,-300.5 1210.29,-294.5 1210.29,-288.5 1210.29,-288.5 1210.29,-276.5 1210.29,-276.5 1210.29,-270.5 1216.29,-264.5 1222.29,-264.5"/>
<text text-anchor="middle" x="1253.29" y="-289.6" font-family="sans-serif" font-size="8.00" fill="#1c2021">Location</text>
<polyline fill="none" stroke="#2e3436" stroke-width="1.5" points="1210.29,-282.5 1296.29,-282.5 "/>
<text text-anchor="start" x="1218.29" y="-271.6" font-family="sans-serif" font-size="8.00" fill="#1c2021">name = &#39;Madrid&#39;</text>
</g>
<!-- N13&#45;&gt;N22 -->
<g id="edge17" class="edge"><title>N13&#45;&gt;N22</title>
<path fill="none" stroke="#4e9a06" stroke-width="2" d="M1253.29,-358.601C1253.29,-344.43 1253.29,-324.24 1253.29,-308.363"/>
<polygon fill="#4e9a06" stroke="#4e9a06" stroke-width="2" points="1253.29,-300.508 1256.66,-308.008 1253.79,-304.258 1253.79,-308.008 1253.29,-308.008 1252.79,-308.008 1252.79,-304.258 1249.91,-308.008 1253.29,-300.508 1253.29,-300.508"/>
<text text-anchor="middle" x="1285.29" y="-330.6" font-family="sans-serif" font-size="8.00" fill="#4e9a06">WORKS_IN</text>
<text text-anchor="start" x="1253.29" y="-321.6" font-family="sans-serif" font-size="8.00" fill="#4e9a06">duration = 230</text>
</g>
<!-- N19 -->
<g id="node22" class="node"><title>N19</title>
<path fill="#ffffff" stroke="#2e3436" stroke-width="1.5" d="M1334.29,-359C1334.29,-359 1426.29,-359 1426.29,-359 1432.29,-359 1438.29,-365 1438.29,-371 1438.29,-371 1438.29,-383 1438.29,-383 1438.29,-389 1432.29,-395 1426.29,-395 1426.29,-395 1334.29,-395 1334.29,-395 1328.29,-395 1322.29,-389 1322.29,-383 1322.29,-383 1322.29,-371 1322.29,-371 1322.29,-365 1328.29,-359 1334.29,-359"/>
<text text-anchor="middle" x="1380.29" y="-384.1" font-family="sans-serif" font-size="8.00" fill="#1c2021">Location</text>
<polyline fill="none" stroke="#2e3436" stroke-width="1.5" points="1322.29,-377 1438.29,-377 "/>
<text text-anchor="start" x="1330.29" y="-366.1" font-family="sans-serif" font-size="8.00" fill="#1c2021">name = &#39;Kuala Lumpur&#39;</text>
</g>
<!-- N20 -->
<g id="node23" class="node"><title>N20</title>
<path fill="#ffffff" stroke="#2e3436" stroke-width="1.5" d="M1479.29,-359C1479.29,-359 1557.29,-359 1557.29,-359 1563.29,-359 1569.29,-365 1569.29,-371 1569.29,-371 1569.29,-383 1569.29,-383 1569.29,-389 1563.29,-395 1557.29,-395 1557.29,-395 1479.29,-395 1479.29,-395 1473.29,-395 1467.29,-389 1467.29,-383 1467.29,-383 1467.29,-371 1467.29,-371 1467.29,-365 1473.29,-359 1479.29,-359"/>
<text text-anchor="middle" x="1518.29" y="-384.1" font-family="sans-serif" font-size="8.00" fill="#1c2021">Location</text>
<polyline fill="none" stroke="#2e3436" stroke-width="1.5" points="1467.29,-377 1569.29,-377 "/>
<text text-anchor="start" x="1475.29" y="-366.1" font-family="sans-serif" font-size="8.00" fill="#1c2021">name = &#39;Stockholm&#39;</text>
</g>
<!-- N21 -->
<g id="node24" class="node"><title>N21</title>
<path fill="#ffffff" stroke="#2e3436" stroke-width="1.5" d="M1610.29,-359C1610.29,-359 1666.29,-359 1666.29,-359 1672.29,-359 1678.29,-365 1678.29,-371 1678.29,-371 1678.29,-383 1678.29,-383 1678.29,-389 1672.29,-395 1666.29,-395 1666.29,-395 1610.29,-395 1610.29,-395 1604.29,-395 1598.29,-389 1598.29,-383 1598.29,-383 1598.29,-371 1598.29,-371 1598.29,-365 1604.29,-359 1610.29,-359"/>
<text text-anchor="middle" x="1638.29" y="-384.1" font-family="sans-serif" font-size="8.00" fill="#1c2021">Location</text>
<polyline fill="none" stroke="#2e3436" stroke-width="1.5" points="1598.29,-377 1678.29,-377 "/>
<text text-anchor="start" x="1606.29" y="-366.1" font-family="sans-serif" font-size="8.00" fill="#1c2021">name = &#39;Paris&#39;</text>
</g>
<!-- N23 -->
<g id="node25" class="node"><title>N23</title>
<path fill="#ffffff" stroke="#2e3436" stroke-width="1.5" d="M1719.29,-359C1719.29,-359 1777.29,-359 1777.29,-359 1783.29,-359 1789.29,-365 1789.29,-371 1789.29,-371 1789.29,-383 1789.29,-383 1789.29,-389 1783.29,-395 1777.29,-395 1777.29,-395 1719.29,-395 1719.29,-395 1713.29,-395 1707.29,-389 1707.29,-383 1707.29,-383 1707.29,-371 1707.29,-371 1707.29,-365 1713.29,-359 1719.29,-359"/>
<text text-anchor="middle" x="1748.29" y="-384.1" font-family="sans-serif" font-size="8.00" fill="#1c2021">Location</text>
<polyline fill="none" stroke="#2e3436" stroke-width="1.5" points="1707.29,-377 1789.29,-377 "/>
<text text-anchor="start" x="1715.29" y="-366.1" font-family="sans-serif" font-size="8.00" fill="#1c2021">name = &#39;Rome&#39;</text>
</g>
<!-- N25 -->
<g id="node26" class="node"><title>N25</title>
<path fill="#ffffff" stroke="#2e3436" stroke-width="1.5" d="M1830.79,-359C1830.79,-359 1883.79,-359 1883.79,-359 1889.79,-359 1895.79,-365 1895.79,-371 1895.79,-371 1895.79,-383 1895.79,-383 1895.79,-389 1889.79,-395 1883.79,-395 1883.79,-395 1830.79,-395 1830.79,-395 1824.79,-395 1818.79,-389 1818.79,-383 1818.79,-383 1818.79,-371 1818.79,-371 1818.79,-365 1824.79,-359 1830.79,-359"/>
<text text-anchor="middle" x="1857.29" y="-384.1" font-family="sans-serif" font-size="8.00" fill="#1c2021">Team</text>
<polyline fill="none" stroke="#2e3436" stroke-width="1.5" points="1818.79,-377 1895.79,-377 "/>
<text text-anchor="start" x="1826.79" y="-366.1" font-family="sans-serif" font-size="8.00" fill="#1c2021">name = &#39;Field&#39;</text>
</g>
<!-- N26 -->
<g id="node27" class="node"><title>N26</title>
<path fill="#ffffff" stroke="#2e3436" stroke-width="1.5" d="M1937.29,-355.5C1937.29,-355.5 2021.29,-355.5 2021.29,-355.5 2027.29,-355.5 2033.29,-361.5 2033.29,-367.5 2033.29,-367.5 2033.29,-386.5 2033.29,-386.5 2033.29,-392.5 2027.29,-398.5 2021.29,-398.5 2021.29,-398.5 1937.29,-398.5 1937.29,-398.5 1931.29,-398.5 1925.29,-392.5 1925.29,-386.5 1925.29,-386.5 1925.29,-367.5 1925.29,-367.5 1925.29,-361.5 1931.29,-355.5 1937.29,-355.5"/>
<text text-anchor="middle" x="1979.29" y="-388.1" font-family="sans-serif" font-size="8.00" fill="#1c2021">Team</text>
<polyline fill="none" stroke="#2e3436" stroke-width="1.5" points="1925.29,-381.5 2033.29,-381.5 "/>
<text text-anchor="start" x="1933.29" y="-371.1" font-family="sans-serif" font-size="8.00" fill="#1c2021">name = &#39;Engineering&#39;</text>
<text text-anchor="start" x="1933.29" y="-362.1" font-family="sans-serif" font-size="8.00" fill="#1c2021">id = 42</text>
</g>
<!-- N27 -->
<g id="node28" class="node"><title>N27</title>
<path fill="#ffffff" stroke="#2e3436" stroke-width="1.5" d="M2074.29,-359C2074.29,-359 2132.29,-359 2132.29,-359 2138.29,-359 2144.29,-365 2144.29,-371 2144.29,-371 2144.29,-383 2144.29,-383 2144.29,-389 2138.29,-395 2132.29,-395 2132.29,-395 2074.29,-395 2074.29,-395 2068.29,-395 2062.29,-389 2062.29,-383 2062.29,-383 2062.29,-371 2062.29,-371 2062.29,-365 2068.29,-359 2074.29,-359"/>
<text text-anchor="middle" x="2103.29" y="-384.1" font-family="sans-serif" font-size="8.00" fill="#1c2021">Team</text>
<polyline fill="none" stroke="#2e3436" stroke-width="1.5" points="2062.29,-377 2144.29,-377 "/>
<text text-anchor="start" x="2070.29" y="-366.1" font-family="sans-serif" font-size="8.00" fill="#1c2021">name = &#39;Sales&#39;</text>
</g>
<!-- N28 -->
<g id="node29" class="node"><title>N28</title>
<path fill="#ffffff" stroke="#2e3436" stroke-width="1.5" d="M2185.29,-359C2185.29,-359 2277.29,-359 2277.29,-359 2283.29,-359 2289.29,-365 2289.29,-371 2289.29,-371 2289.29,-383 2289.29,-383 2289.29,-389 2283.29,-395 2277.29,-395 2277.29,-395 2185.29,-395 2185.29,-395 2179.29,-395 2173.29,-389 2173.29,-383 2173.29,-383 2173.29,-371 2173.29,-371 2173.29,-365 2179.29,-359 2185.29,-359"/>
<text text-anchor="middle" x="2231.29" y="-384.1" font-family="sans-serif" font-size="8.00" fill="#1c2021">Team</text>
<polyline fill="none" stroke="#2e3436" stroke-width="1.5" points="2173.29,-377 2289.29,-377 "/>
<text text-anchor="start" x="2181.29" y="-366.1" font-family="sans-serif" font-size="8.00" fill="#1c2021">name = &#39;Team Monads&#39;</text>
</g>
<!-- N29 -->
<g id="node30" class="node"><title>N29</title>
<path fill="#ffffff" stroke="#2e3436" stroke-width="1.5" d="M2330.29,-359C2330.29,-359 2478.29,-359 2478.29,-359 2484.29,-359 2490.29,-365 2490.29,-371 2490.29,-371 2490.29,-383 2490.29,-383 2490.29,-389 2484.29,-395 2478.29,-395 2478.29,-395 2330.29,-395 2330.29,-395 2324.29,-395 2318.29,-389 2318.29,-383 2318.29,-383 2318.29,-371 2318.29,-371 2318.29,-365 2324.29,-359 2330.29,-359"/>
<text text-anchor="middle" x="2404.29" y="-384.1" font-family="sans-serif" font-size="8.00" fill="#1c2021">Team</text>
<polyline fill="none" stroke="#2e3436" stroke-width="1.5" points="2318.29,-377 2490.29,-377 "/>
<text text-anchor="start" x="2326.29" y="-366.1" font-family="sans-serif" font-size="8.00" fill="#1c2021">name = &#39;Team Enlightened Birdmen&#39;</text>
</g>
<!-- N30 -->
<g id="node31" class="node"><title>N30</title>
<path fill="#ffffff" stroke="#2e3436" stroke-width="1.5" d="M2531.79,-359C2531.79,-359 2620.79,-359 2620.79,-359 2626.79,-359 2632.79,-365 2632.79,-371 2632.79,-371 2632.79,-383 2632.79,-383 2632.79,-389 2626.79,-395 2620.79,-395 2620.79,-395 2531.79,-395 2531.79,-395 2525.79,-395 2519.79,-389 2519.79,-383 2519.79,-383 2519.79,-371 2519.79,-371 2519.79,-365 2525.79,-359 2531.79,-359"/>
<text text-anchor="middle" x="2576.29" y="-384.1" font-family="sans-serif" font-size="8.00" fill="#1c2021">Team</text>
<polyline fill="none" stroke="#2e3436" stroke-width="1.5" points="2519.79,-377 2632.79,-377 "/>
<text text-anchor="start" x="2527.79" y="-366.1" font-family="sans-serif" font-size="8.00" fill="#1c2021">name = &#39;Team Quality&#39;</text>
</g>
<!-- N31 -->
<g id="node32" class="node"><title>N31</title>
<path fill="#ffffff" stroke="#2e3436" stroke-width="1.5" d="M2673.79,-359C2673.79,-359 2768.79,-359 2768.79,-359 2774.79,-359 2780.79,-365 2780.79,-371 2780.79,-371 2780.79,-383 2780.79,-383 2780.79,-389 2774.79,-395 2768.79,-395 2768.79,-395 2673.79,-395 2673.79,-395 2667.79,-395 2661.79,-389 2661.79,-383 2661.79,-383 2661.79,-371 2661.79,-371 2661.79,-365 2667.79,-359 2673.79,-359"/>
<text text-anchor="middle" x="2721.29" y="-384.1" font-family="sans-serif" font-size="8.00" fill="#1c2021">Team</text>
<polyline fill="none" stroke="#2e3436" stroke-width="1.5" points="2661.79,-377 2780.79,-377 "/>
<text text-anchor="start" x="2669.79" y="-366.1" font-family="sans-serif" font-size="8.00" fill="#1c2021">name = &#39;Team Rassilon&#39;</text>
</g>
<!-- N32 -->
<g id="node33" class="node"><title>N32</title>
<path fill="#ffffff" stroke="#2e3436" stroke-width="1.5" d="M2821.79,-359C2821.79,-359 2920.79,-359 2920.79,-359 2926.79,-359 2932.79,-365 2932.79,-371 2932.79,-371 2932.79,-383 2932.79,-383 2932.79,-389 2926.79,-395 2920.79,-395 2920.79,-395 2821.79,-395 2821.79,-395 2815.79,-395 2809.79,-389 2809.79,-383 2809.79,-383 2809.79,-371 2809.79,-371 2809.79,-365 2815.79,-359 2821.79,-359"/>
<text text-anchor="middle" x="2871.29" y="-384.1" font-family="sans-serif" font-size="8.00" fill="#1c2021">Team</text>
<polyline fill="none" stroke="#2e3436" stroke-width="1.5" points="2809.79,-377 2932.79,-377 "/>
<text text-anchor="start" x="2817.79" y="-366.1" font-family="sans-serif" font-size="8.00" fill="#1c2021">name = &#39;Team Executive&#39;</text>
</g>
<!-- N33 -->
<g id="node34" class="node"><title>N33</title>
<path fill="#ffffff" stroke="#2e3436" stroke-width="1.5" d="M2973.79,-359C2973.79,-359 3072.79,-359 3072.79,-359 3078.79,-359 3084.79,-365 3084.79,-371 3084.79,-371 3084.79,-383 3084.79,-383 3084.79,-389 3078.79,-395 3072.79,-395 3072.79,-395 2973.79,-395 2973.79,-395 2967.79,-395 2961.79,-389 2961.79,-383 2961.79,-383 2961.79,-371 2961.79,-371 2961.79,-365 2967.79,-359 2973.79,-359"/>
<text text-anchor="middle" x="3023.29" y="-384.1" font-family="sans-serif" font-size="8.00" fill="#1c2021">Team</text>
<polyline fill="none" stroke="#2e3436" stroke-width="1.5" points="2961.79,-377 3084.79,-377 "/>
<text text-anchor="start" x="2969.79" y="-366.1" font-family="sans-serif" font-size="8.00" fill="#1c2021">name = &#39;Team Remoting&#39;</text>
</g>
<!-- N34 -->
<g id="node35" class="node"><title>N34</title>
<path fill="#ffffff" stroke="#2e3436" stroke-width="1.5" d="M3126.29,-359C3126.29,-359 3184.29,-359 3184.29,-359 3190.29,-359 3196.29,-365 3196.29,-371 3196.29,-371 3196.29,-383 3196.29,-383 3196.29,-389 3190.29,-395 3184.29,-395 3184.29,-395 3126.29,-395 3126.29,-395 3120.29,-395 3114.29,-389 3114.29,-383 3114.29,-383 3114.29,-371 3114.29,-371 3114.29,-365 3120.29,-359 3126.29,-359"/>
<text text-anchor="middle" x="3155.29" y="-384.1" font-family="sans-serif" font-size="8.00" fill="#1c2021">Team</text>
<polyline fill="none" stroke="#2e3436" stroke-width="1.5" points="3114.29,-377 3196.29,-377 "/>
<text text-anchor="start" x="3122.29" y="-366.1" font-family="sans-serif" font-size="8.00" fill="#1c2021">name = &#39;Other&#39;</text>
</g>
</g>
</svg>
